<svg width="212" height="156" viewBox="0 0 212 156" fill="none" xmlns="http://www.w3.org/2000/svg">
<path d="M168.67 90.124C168.678 98.521 166.866 106.826 163.349 114.508C159.833 122.19 154.69 129.079 148.251 134.734C146.459 136.308 144.576 137.783 142.61 139.15C140.087 140.905 137.431 142.474 134.665 143.846H134.636C134.046 144.144 133.447 144.428 132.843 144.703C132.567 144.833 132.297 144.955 132.016 145.076C130.267 145.849 128.472 146.543 126.632 147.158C125.182 147.624 123.694 148.09 122.191 148.472C113.52 150.695 104.457 151.106 95.609 149.678C94.56 149.511 93.526 149.32 92.496 149.101L91.626 148.91C89 148.318 86.417 147.562 83.893 146.646C82.427 146.115 80.99 145.532 79.582 144.899C79.036 144.652 78.49 144.4 77.954 144.139C77.586 143.962 77.224 143.781 76.861 143.599C67.027 138.621 58.743 131.213 52.856 122.135C46.969 113.056 43.691 102.632 43.358 91.93C43.024 81.229 45.648 70.634 50.96 61.232C56.272 51.8289 64.081 43.9558 73.587 38.4186C83.094 32.8814 93.957 29.8791 105.063 29.719C116.169 29.559 127.12 32.2469 136.794 37.5077C146.468 42.7684 154.518 50.4129 160.119 59.658C165.72 68.904 168.671 79.418 168.67 90.124Z" fill="url(#paint0_linear)"/>
<path d="M122.423 94.494C126.415 98.454 138.043 113.864 138.043 113.864L130.9 123.959L124.477 103.904L122.423 94.494Z" fill="url(#paint1_linear)"/>
<path d="M134.636 143.878C134.046 144.177 133.447 144.461 132.843 144.736C132.567 144.866 132.297 144.987 132.016 145.108C130.267 145.882 128.472 146.576 126.632 147.191C125.182 147.656 123.694 148.122 122.191 148.504C113.52 150.727 104.457 151.139 95.609 149.711C94.56 149.543 93.526 149.352 92.496 149.133C88.726 151.639 85.247 153.759 82.941 154.723L83.13 153.172L83.913 146.683L85.725 131.585L92.907 124.89L76.76 126.097C76.76 126.097 78.456 103.41 85.077 98.742C91.699 94.075 98.644 89.891 98.644 89.891C99.473 90.418 100.385 90.81 101.346 91.051C103.642 91.663 106.029 91.898 108.407 91.745C111.239 91.62 114.071 89.081 114.206 88.95C114.206 88.95 118.653 89.803 122.423 94.512C124.303 96.937 125.653 99.704 126.391 102.646C127.319 106.089 128.967 114.129 130.842 123.842C132.07 130.094 133.36 137.026 134.636 143.878Z" fill="url(#paint2_linear)"/>
<path d="M138.043 113.882L144.935 121.667L169.173 98.477L170.091 93.73L174.925 89.682L172.774 95.854V103.895C172.774 103.895 154.079 133.103 148.927 134.608C142.901 136.374 130.91 123.949 130.91 123.949L138.043 113.882Z" fill="url(#paint3_linear)"/>
<path d="M112.882 124.527L118.503 137.571L125.767 134.561L120.441 121.797L112.882 124.527Z" fill="#7E57C2"/>
<path d="M120.712 132.954C119.808 133.672 118.46 133.504 116.787 133.588C114.541 133.645 112.386 134.459 110.698 135.889C108.45 137.711 102.167 142.476 95.884 146.827C94.744 147.614 93.603 148.392 92.501 149.156C88.731 151.663 85.252 153.782 82.946 154.747C82.34 155.037 81.686 155.221 81.013 155.292C77.784 155.371 77.093 148.849 76.895 143.645C76.832 141.917 76.818 140.338 76.784 139.197C76.649 134.631 76.784 126.153 76.784 126.153L92.931 124.942L91.22 135.721L90.921 137.627V137.641L95.754 135.917L95.904 135.866L113.061 129.721L114.245 127.751L114.999 129.614H115.072L122.418 128.682C122.418 128.682 122.544 131.505 120.712 132.954Z" fill="url(#paint4_linear)"/>
<path d="M117.005 64.968C116.584 63.86 116.222 63.105 116.116 62.881V62.826C116.116 62.826 115.743 63.711 112.94 63.496C110.137 63.282 109.209 61.94 109.209 61.94C109.209 61.94 110.089 64.847 106.749 66.091C103.535 67.293 102.269 66.515 102.182 66.459C102.351 66.636 104.864 69.226 103.197 71.281C101.471 73.41 97.59 72.99 97.59 72.99V73.018C98.079 74.084 98.626 75.125 99.229 76.135C99.548 76.666 99.862 77.155 100.195 77.612V77.644C101.051 78.986 102.207 80.127 103.579 80.984C102.976 84.393 101.245 87.523 98.644 89.905C99.519 90.345 100.421 90.733 101.346 91.065C103.148 91.722 105.57 92.374 107.73 92.193C110.233 91.935 112.546 90.785 114.216 88.969L113.109 84.874L112.114 81.185C121.113 78.972 118.638 69.347 117.005 64.968ZM111.611 81.32L111.771 81.282L112.027 81.213C111.654 81.368 111.26 81.472 110.857 81.52C111.065 81.469 111.278 81.413 111.5 81.348L111.611 81.32Z" fill="url(#paint5_linear)"/>
<path d="M122.423 62.704C118.711 65.993 117.106 65.066 117.005 64.978V64.968C116.584 63.86 116.222 63.105 116.12 62.881L116.096 62.826C116.096 62.826 115.719 63.711 112.916 63.496C110.113 63.282 109.19 61.94 109.19 61.94C109.19 61.94 110.069 64.847 106.73 66.091C103.511 67.293 102.244 66.515 102.162 66.459C102.331 66.631 104.845 69.222 103.177 71.276C101.452 73.405 97.571 72.99 97.571 72.99V73.014C98.059 74.081 98.606 75.123 99.209 76.135C99.531 76.663 99.854 77.155 100.176 77.612V77.644C100.176 77.644 98.852 80.155 96.488 80.104C94.125 80.053 94.072 77.775 94.072 77.775C94.072 77.775 92.399 80.681 87.233 77.882C82.066 75.082 85.512 71.024 85.512 71.024C85.512 71.024 81.849 68.323 81.849 64.274C81.849 60.226 87.552 57.147 87.552 57.147C87.552 57.147 85.512 52.4464 88.953 49.8563C92.395 47.2662 97.566 49.0224 97.566 49.0224C97.566 49.0224 97.465 43.0083 102.733 43.1062C108.001 43.204 109.194 46.3112 109.194 46.3112C109.194 46.3112 113.931 42.7801 118.619 46.1062C123.307 49.4324 121.379 55.2322 121.379 55.2322C121.379 55.2322 126.294 59.28 122.423 62.704Z" fill="url(#paint6_linear)"/>
<path opacity="0.15" d="M113.148 84.86C110.901 84.175 106.904 81.562 106.904 81.562C108.481 81.723 110.075 81.641 111.626 81.32L111.785 81.282L112.095 81.194H112.138L113.148 84.86Z" fill="black"/>
<path opacity="0.15" d="M95.087 110.957L92.907 124.932L91.196 135.712L87.214 138.903L95.879 135.87C95.879 135.87 93.632 129.684 95.087 110.957Z" fill="black"/>
<path opacity="0.15" d="M92.487 149.133C93.516 149.352 94.55 149.543 95.599 149.711C95.652 148.756 95.749 147.791 95.884 146.827L92.487 149.133Z" fill="black"/>
<path d="M71.54 0.134308H45.698C42.132 0.134308 39.241 2.92071 39.241 6.35801V31.2669C39.241 34.7042 42.132 37.4906 45.698 37.4906H71.54C75.106 37.4906 77.997 34.7042 77.997 31.2669V6.35801C77.997 2.92071 75.106 0.134308 71.54 0.134308Z" fill="#56CCF2"/>
<path d="M68.316 17.5068H64.387L67.44 14.5443L66.111 13.2459L61.721 17.5068H59.837V15.6781L64.227 11.4173L62.889 10.128L59.837 13.0905V9.27769H57.953V13.0905L54.9 10.128L53.563 11.4173L57.953 15.6781V17.5068H56.069L51.678 13.2459L50.35 14.5443L53.402 17.5068H49.474V19.3354H53.402L50.35 22.2979L51.678 23.5963L56.069 19.3354H57.953V21.1641L53.563 25.4249L54.9 26.7142L57.953 23.7517V27.5645H59.837V23.7517L62.889 26.7142L64.227 25.4249L59.837 21.1641V19.3354H61.721L66.111 23.5963L67.44 22.2979L64.387 19.3354H68.316V17.5068Z" fill="white"/>
<path d="M205.189 88.311H179.346C175.78 88.311 172.889 91.098 172.889 94.535V119.444C172.889 122.881 175.78 125.668 179.346 125.668H205.189C208.755 125.668 211.646 122.881 211.646 119.444V94.535C211.646 91.098 208.755 88.311 205.189 88.311Z" fill="#F2C94C"/>
<path d="M201.152 103.855C201.152 99.283 197.384 95.626 192.674 95.626C187.963 95.626 184.195 99.283 184.195 103.855C184.195 106.689 185.702 109.25 187.963 110.712V112.998C187.963 114.187 188.717 115.193 189.847 115.558V115.741C189.847 117.296 191.072 118.484 192.674 118.484C194.275 118.484 195.5 117.296 195.5 115.741V115.558C196.63 115.193 197.384 114.187 197.384 112.998V110.712C199.645 109.25 201.152 106.689 201.152 103.855ZM186.079 103.855C186.079 100.289 188.999 97.455 192.674 97.455C196.348 97.455 199.268 100.289 199.268 103.855C199.268 107.055 196.819 109.707 193.616 110.164V107.878L195.217 106.324C195.594 105.958 195.594 105.409 195.217 105.044C194.84 104.678 194.275 104.678 193.898 105.044L192.674 106.232L191.449 105.044C191.072 104.678 190.507 104.678 190.13 105.044C189.753 105.409 189.753 105.958 190.13 106.324L191.731 107.878V110.164C188.528 109.707 186.079 107.055 186.079 103.855ZM192.674 116.656C192.108 116.656 191.731 116.29 191.731 115.741H193.616C193.616 116.29 193.239 116.656 192.674 116.656ZM195.5 112.998C195.5 113.547 195.123 113.913 194.558 113.913H190.789C190.224 113.913 189.847 113.547 189.847 112.998V111.627C190.695 111.901 191.637 112.084 192.674 112.084C193.71 112.084 194.652 111.901 195.5 111.627V112.998Z" fill="white"/>
<path d="M32.784 88.311H6.941C3.375 88.311 0.484001 91.098 0.484001 94.535V119.444C0.484001 122.881 3.375 125.668 6.941 125.668H32.784C36.35 125.668 39.241 122.881 39.241 119.444V94.535C39.241 91.098 36.35 88.311 32.784 88.311Z" fill="#F58A8A"/>
<path d="M25.921 103.855H24.979V102.026C24.979 99.503 22.868 97.454 20.268 97.454C17.668 97.454 15.558 99.503 15.558 102.026V103.855H14.616C13.579 103.855 12.731 104.678 12.731 105.684V114.827C12.731 115.833 13.579 116.656 14.616 116.656H25.921C26.957 116.656 27.805 115.833 27.805 114.827V105.684C27.805 104.678 26.957 103.855 25.921 103.855ZM20.268 112.084C19.232 112.084 18.384 111.261 18.384 110.255C18.384 109.249 19.232 108.427 20.268 108.427C21.305 108.427 22.152 109.249 22.152 110.255C22.152 111.261 21.305 112.084 20.268 112.084ZM23.189 103.855H17.348V102.026C17.348 100.463 18.657 99.192 20.268 99.192C21.879 99.192 23.189 100.463 23.189 102.026V103.855Z" fill="white"/>
<path d="M162.794 0.134308H136.952C133.386 0.134308 130.495 2.92071 130.495 6.35801V31.2669C130.495 34.7042 133.386 37.4906 136.952 37.4906H162.794C166.36 37.4906 169.251 34.7042 169.251 31.2669V6.35801C169.251 2.92071 166.36 0.134308 162.794 0.134308Z" fill="#6FCF97"/>
<path d="M155.282 13.7548H139.896V23.0873H155.282V13.7548Z" fill="white"/>
<path d="M159.429 15.6118L156.033 16.9971V19.8842L159.429 21.2695H160.661V15.6118H159.429Z" fill="white"/>
<defs>
<linearGradient id="paint0_linear" x1="106.257" y1="36.2717" x2="104.266" y2="155.33" gradientUnits="userSpaceOnUse">
<stop stop-color="white" stop-opacity="0"/>
<stop offset="1" stop-color="#64B5F6" stop-opacity="0.6"/>
</linearGradient>
<linearGradient id="paint1_linear" x1="117.691" y1="90.492" x2="134.027" y2="120.274" gradientUnits="userSpaceOnUse">
<stop stop-color="#E57373"/>
<stop offset="1" stop-color="#AD1457"/>
</linearGradient>
<linearGradient id="paint2_linear" x1="26503" y1="36351.6" x2="24802.5" y2="45058.9" gradientUnits="userSpaceOnUse">
<stop stop-color="#E57373"/>
<stop offset="1" stop-color="#AD1457"/>
</linearGradient>
<linearGradient id="paint3_linear" x1="181.483" y1="101.258" x2="135.537" y2="128.873" gradientUnits="userSpaceOnUse">
<stop stop-color="#FFF8E1"/>
<stop offset="1" stop-color="#FFCC80"/>
</linearGradient>
<linearGradient id="paint4_linear" x1="20389.9" y1="20373.7" x2="17921.8" y2="18647.1" gradientUnits="userSpaceOnUse">
<stop stop-color="#FFF8E1"/>
<stop offset="1" stop-color="#FFCC80"/>
</linearGradient>
<linearGradient id="paint5_linear" x1="121.736" y1="69.712" x2="96.489" y2="80.5" gradientUnits="userSpaceOnUse">
<stop stop-color="#FFF8E1"/>
<stop offset="1" stop-color="#FFCC80"/>
</linearGradient>
<linearGradient id="paint6_linear" x1="115.879" y1="42.9291" x2="87.405" y2="82.844" gradientUnits="userSpaceOnUse">
<stop stop-color="#FFB74D"/>
<stop offset="1" stop-color="#F4511E"/>
</linearGradient>
</defs>
</svg>
